<?xml version="1.0" encoding="UTF-8" standalone="no"?>
<svg
   viewBox="0 0 32 32"
   fill="#000000"
   version="1.1"
   id="svg1"
   sodipodi:docname="app-dark.svg"
   inkscape:version="1.3 (0e150ed6c4, 2023-07-21)"
   width="32"
   height="32"
   xmlns:inkscape="http://www.inkscape.org/namespaces/inkscape"
   xmlns:sodipodi="http://sodipodi.sourceforge.net/DTD/sodipodi-0.dtd"
   xmlns="http://www.w3.org/2000/svg"
   xmlns:svg="http://www.w3.org/2000/svg">
  <defs
     id="defs1">
    <linearGradient
       id="swatch1"
       inkscape:swatch="solid">
      <stop
         style="stop-color:#ffffff;stop-opacity:1;"
         offset="0"
         id="stop1" />
    </linearGradient>
  </defs>
  <sodipodi:namedview
     id="namedview1"
     pagecolor="#ffffff"
     bordercolor="#000000"
     borderopacity="0.25"
     inkscape:showpageshadow="2"
     inkscape:pageopacity="0.0"
     inkscape:pagecheckerboard="0"
     inkscape:deskcolor="#d1d1d1"
     inkscape:zoom="15.758161"
     inkscape:cx="12.215892"
     inkscape:cy="9.772714"
     inkscape:window-width="1920"
     inkscape:window-height="1010"
     inkscape:window-x="0"
     inkscape:window-y="0"
     inkscape:window-maximized="1"
     inkscape:current-layer="svg1" />
  <g
     id="g3"
     transform="translate(1.4013811e-4,4.9861892e-5)">
    <path
       d="m 28.198,25.231 c -0.10352,1.5161 -1.6552,2.5392 -3.0841,2.3397 -7.2672,-0.0086 -14.535,-0.0226 -21.802,-0.05318 -1.3254,-0.09066 -2.2135,-1.2446 -2.2865,-2.4992 -1.49e-4,0.95665 0.0012,1.9148 0,2.8714 -0.19976,1.4317 0.76888,2.9804 2.2865,3.0841 7.2804,0.03061 14.574,-0.0086 21.855,0 1.4317,0.19976 2.9804,-0.76888 3.0841,-2.2865 l -0.05318,-3.4564 z"
       id="path1" />
    <path
       d="M 3.5784,3.7486 C 2.3053,3.726626 1.1824,4.57789 1.0792,5.6097 1.04864,11.519 1.03475,17.4067 1.02603,23.3167 c -0.19938,1.162 0.77176,2.415 2.2865,2.4992 7.2666,0.02484 14.534,0.04608 21.802,0.05318 1.429,0.16214 2.9806,-0.62931 3.0841,-1.8611 0.02645,-5.1131 0.05232,-10.254 0.05318,-15.367 l -8.5611,8.5611 c -0.63809,0.63808 -1.4235,0.86711 -2.2333,0.90397 -0.39248,0.3212 -0.7812,0.63262 -1.2762,0.79762 -0.67126,0.22376 -1.7102,0.31042 -2.5524,-0.53175 -0.84216,-0.84216 -0.7555,-1.8811 -0.53175,-2.5524 0.165,-0.49499 0.47642,-0.88372 0.79762,-1.2762 0.03685,-0.80986 0.26588,-1.5952 0.90397,-2.2333 l 8.5611,-8.5611 c -6.5796,-0.013357 -13.201,0.00626 -19.781,0 z"
       id="path2" />
    <path
       d="m 16.062,13.532 c -0.44049,0.44049 -0.55529,1.0558 -0.4136,1.6168 l -0.188,0.188 c -0.66658,0.66658 -0.93489,1.4715 -0.6016,1.8048 0.33329,0.33329 1.1382,0.06497 1.8048,-0.6016 l 0.188,-0.188 c 0.56096,0.14169 1.1763,0.02688 1.6168,-0.4136 l 12.032,-12.032 c 0.66658,-0.66658 0.66658,-1.7398 0,-2.4064 -0.66657,-0.66658 -1.7398,-0.66658 -2.4064,0 z"
       id="path3" />
  </g>
</svg>
